<?xml version="1.0" encoding="UTF-8"?>
<svg xmlns="http://www.w3.org/2000/svg" baseProfile="tiny-ps" version="1.2" viewBox="0 0 512 512">
  <title>Sleek Lemon Logo</title>
  <path d="M471.99.02H39.99C17.91.02-.02,17.99-.02,40.19v431.63c0,22.2,17.93,40.18,40.01,40.18h432c22.07,0,40.01-17.98,40.01-40.18V40.19C512,17.99,494.06.02,471.99.02ZM387.4,347.02v40.39H124.81V124.83h46.05v222.19h216.54ZM356.55,186.49v30.85h-30.82v-30.85h-30.85v-30.81h30.85v-30.85h30.82v30.85h30.85v30.81h-30.85Z" fill="#f04e2c"/>
  <polygon points="387.4 155.68 387.4 186.49 356.55 186.49 356.55 217.34 325.73 217.34 325.73 186.49 294.88 186.49 294.88 155.68 325.73 155.68 325.73 124.83 356.55 124.83 356.55 155.68 387.4 155.68" fill="#fff"/>
  <polygon points="170.86 347.02 387.4 347.02 387.4 387.41 124.81 387.41 124.81 124.83 170.86 124.83 170.86 347.02" fill="#fff"/>
</svg>
